#N canvas 748 423 450 300 10;
#X obj 205 -85 inlet;
#X obj 146 247 outlet~;
#X obj 146 123 tabplay~ buffer;
#X obj 198 19 unpack;
#X obj 220 205 line~;
#X obj 217 85 del;
#X obj 147 -8 t l b b l;
#X obj 146 221 *~;
#X obj 232 61 expr $f1-20;
#X msg 195 172 1 10;
#X msg 243 171 0 10;
#X floatatom 272 99 8 0 0 0 - - -;
#X obj 231 39 / 44.1;
#X connect 0 0 6 0;
#X connect 2 0 7 0;
#X connect 3 1 12 0;
#X connect 4 0 7 1;
#X connect 5 0 10 0;
#X connect 6 0 2 0;
#X connect 6 1 5 0;
#X connect 6 2 9 0;
#X connect 6 3 3 0;
#X connect 7 0 1 0;
#X connect 8 0 5 1;
#X connect 8 0 11 0;
#X connect 9 0 4 0;
#X connect 10 0 4 0;
#X connect 12 0 8 0;
