#N canvas 78 87 1148 551 10;
#X declare -path mrpeach;
#X msg 387 -6 disconnect;
#X obj 394 -80 packOSC;
#X obj 394 56 tgl 15 0 empty empty 1=connected 20 8 0 8 #00fc04 #f8fc00 #000000 0 1;
#X obj -39 -84 unpackOSC;
#X floatatom 45 -64 10 0 0 1 millisecond_delay - - 0;
#X obj -39 -57 pipelist;
#X obj 390 126 table buffer 1;
#X msg 391 173 read -resize cherokee.aif buffer;
#X obj 391 198 soundfiler;
#X obj 391 147 loadbang;
#X obj 394 21 udpsend;
#X obj 537 -111 declare -path mrpeach;
#X obj -39 -4 s period;
#X obj 33 19 s duration;
#X obj 101 19 s position;
#X obj 728 -65 metro;
#X obj 755 -87 r period;
#X obj 728 -112 loadbang;
#X obj 728 -87 tgl 15 0 empty empty empty 17 7 0 10 #fcfcfc #000000 #000000 0 1;
#X obj 744 214 pack f f;
#X obj 780 183 t b f;
#X msg 729 257 next \$1 \$2;
#X obj 718 367 dac~;
#X msg -50 85 1000;
#X obj 742 -18 r position;
#X obj 780 161 r duration;
#X obj 101 -7 * 44.1;
#X obj 33 -5 * 44.1;
#X obj -69 139 hsl 128 15 0 3000 0 0 empty empty empty -2 -8 0 10 #fcfcfc #000000 #000000 0 1;
#X obj -104 22 hsl 128 15 5 500 0 0 empty empty empty -2 -8 0 10 #fcfcfc #000000 #000000 0 1;
#X floatatom 776 -66 5 0 0 0 - - - 0;
#X msg -85 50 300;
#X obj 729 294 clone grain 32;
#X obj 34 103 hsl 128 15 20 500 1 0 empty empty empty -2 -8 0 10 #fcfcfc #000000 #000000 0 1;
#X obj 184 20 s gain;
#X obj 829 253 r gain;
#X msg 829 275 \$1 50;
#X obj 829 296 line~;
#X obj 729 322 *~;
#X msg 394 -112 send /region f f;
#X obj 790 71 random;
#X obj -39 -34 routeOSC /period /duration /position /gain /positionvar;
#X obj 258 5 * 44.1;
#X obj 258 31 s positionvar;
#X obj 796 4 r positionvar;
#X obj 823 49 * 2;
#X obj 781 95 -;
#X obj 796 27 t f f;
#X obj 744 155 +;
#X obj 199 143 hsl 128 15 20 500 1 0 empty empty empty -2 -8 0 10 #fcfcfc #000000 #000000 0 1;
#X obj 728 -42 t b b;
#X obj 781 116 t b f;
#X obj 579 1 unpack f f;
#X obj 579 26 / 44.1;
#X obj 629 27 / 44.1;
#X obj 584 62 pack f f;
#X obj 601 96 speedlim 40;
#X msg 524 138 send /region \$1 \$2;
#X obj -39 -114 udpreceive 12000;
#X msg 365 -28 connect 127.0.0.1 12001;
#X obj 233 -69 print;
#X obj 729 235 list;
#X msg 186 69 0.1;
#X text -67 201 INSTRUCTIONS: install mrpeach lybrary \, add "mrpeach/" to the objects not working (dashed lines) \, open and run Processing GUI and click "connect 127.0.0.1";
#X connect 0 0 10 0;
#X connect 1 0 10 0;
#X connect 3 0 5 0;
#X connect 3 0 60 0;
#X connect 3 1 4 0;
#X connect 3 1 5 1;
#X connect 5 0 41 0;
#X connect 7 0 8 0;
#X connect 9 0 7 0;
#X connect 10 0 2 0;
#X connect 15 0 50 0;
#X connect 16 0 15 1;
#X connect 16 0 30 0;
#X connect 17 0 18 0;
#X connect 18 0 15 0;
#X connect 19 0 52 0;
#X connect 19 0 61 1;
#X connect 20 0 19 0;
#X connect 20 1 19 1;
#X connect 21 0 32 0;
#X connect 23 0 26 0;
#X connect 24 0 48 0;
#X connect 25 0 20 0;
#X connect 26 0 14 0;
#X connect 27 0 13 0;
#X connect 28 0 26 0;
#X connect 29 0 12 0;
#X connect 31 0 27 0;
#X connect 32 0 38 0;
#X connect 33 0 27 0;
#X connect 35 0 36 0;
#X connect 36 0 37 0;
#X connect 37 0 38 1;
#X connect 38 0 22 0;
#X connect 38 0 22 1;
#X connect 39 0 1 0;
#X connect 40 0 46 0;
#X connect 41 0 12 0;
#X connect 41 1 27 0;
#X connect 41 2 26 0;
#X connect 41 3 34 0;
#X connect 41 4 42 0;
#X connect 42 0 43 0;
#X connect 44 0 47 0;
#X connect 45 0 40 1;
#X connect 46 0 51 0;
#X connect 47 0 46 1;
#X connect 47 1 45 0;
#X connect 48 0 19 0;
#X connect 49 0 42 0;
#X connect 50 0 61 0;
#X connect 50 1 40 0;
#X connect 51 0 48 0;
#X connect 51 1 48 1;
#X connect 52 0 53 0;
#X connect 52 1 54 0;
#X connect 53 0 55 0;
#X connect 54 0 55 1;
#X connect 55 0 57 0;
#X connect 57 0 1 0;
#X connect 58 0 3 0;
#X connect 59 0 10 0;
#X connect 61 0 21 0;
#X connect 62 0 34 0;
